<?xml version="1.0" encoding="UTF-8"?>
<svg version="1.1" viewBox="0 0 1292 1272" width="323" height="318" xmlns="http://www.w3.org/2000/svg">
<path transform="translate(0)" d="m0 0h1292v1272h-1292z" fill="#FEFEFE"/>
<path transform="translate(530,298)" d="m0 0h61l29 2 33 4 29 5 31 7 29 8 36 12 28 11 26 12 17 8 22 12 26 15 20 13 16 11 18 13 14 11 22 18 12 11 8 7 15 14 24 24 7 8 11 12 9 11 7 9 4 8v15l-4 9-9 11-12 14-5 6h-2l-2 4-24 24-4 5-8 7-6 6h-2v2l-8 7-10 9-11 9-16 13-16 12-18 13-15 10-19 12-28 16-17 9-23 11-23 10-31 12-37 12-31 8-33 7-35 5-31 3-16 1h-52l-27-2-34-4-30-5-28-6-30-8-36-12-24-9-25-11-25-12-23-12-24-14-19-12-19-13-18-13-25-20-13-11-12-11-8-7-15-14-20-20-7-8-13-14-9-11-7-9-4-8-1-4v-7l3-10 6-9 9-10 7-8 22-24 28-28 8-7 10-9 11-9 10-9 13-10 19-14 23-16 22-14 24-14 29-15 25-12 32-13 31-11 35-10 30-7 33-6 34-4z" fill="#010101"/>
<path transform="translate(545,358)" d="m0 0h36l22 3 21 5 20 7 19 9 15 9 14 10 10 8 10 9 11 11 11 14 10 14 9 16 8 17 9 27 5 25 2 23v12l-2 25-5 25-8 24-8 18-11 19-9 13-9 11-14 15-10 9-13 10-15 10-23 12-21 8-23 6-19 3-11 1h-28l-25-3-24-6-22-8-22-11-14-9-12-9-14-12-11-11-9-11-10-13-11-18-11-23-7-21-5-21-3-25v-26l3-25 5-21 5-16 9-21 9-16 11-16 13-16 17-17 14-11 11-8 22-13 19-8 18-6 23-5z" fill="#FEFEFE"/>
<path transform="translate(561,457)" d="m0 0 17 1 21 5 16 7 15 9 13 12 9 9 10 15 8 17 5 18 2 18v9l-3 21-7 21-8 15-11 14-12 12-10 7-14 8-15 6-16 4-8 1h-21l-18-3-15-5-16-8-14-10-10-9-11-14-9-15-6-15-4-18-1-8v-19l3-18 6-17 8-16 9-12 11-12 13-10 13-8 21-8 15-3z" fill="#010101"/>
<path transform="translate(347,400)" d="m0 0v3l-9 12-11 17-14 27-10 26-6 20-5 24-3 32v24l3 29 6 29 10 30 9 20 10 19 10 15 11 15-2 1-16-7-28-13-24-13-22-13-28-19-14-10-18-14-11-9-13-11-24-22-26-26-7-8-4-5 1-5 3-1 2-4 9-9 7-8 7-7h2l1-3 8-7 9-9 8-7 10-9 14-11 16-13 19-14 15-10 19-12 17-10 22-12 28-14z" fill="#FEFEFE"/>
<path transform="translate(777,401)" d="m0 0 5 1 35 16 25 13 27 16 15 10 16 11 19 14 15 12 11 9 11 10 8 7 15 14 27 27v2l3 1 5 6-1 4-9 10-11 12-21 21-8 7-13 12-11 9-12 10-13 10-18 13-15 10-14 9-15 9-25 14-26 13-23 10h-2l2-4 10-13 12-20 8-15 10-24 7-22 5-22 3-19 1-10 1-27-2-28-4-24-6-23-6-18-11-25-10-18-10-16-8-10z" fill="#FEFEFE"/>
</svg>
