<?xml version="1.0" encoding="UTF-8"?>
<svg version="1.1" viewBox="0 0 1408 1332" width="352" height="333" xmlns="http://www.w3.org/2000/svg">
<path transform="translate(0)" d="m0 0h1408v1332h-1408z" fill="#fff"/>
<path transform="translate(1136,223)" d="m0 0h11l10 4 8 7 6 12v13l-4 10-14 15-111 111 6 2 34 17 23 13 21 13 21 14 14 10 16 12 14 11 13 11 14 12 13 12 12 11 15 15 7 8 8 8 7 8 9 10 11 14 4 10v12l-4 10-14 17-7 7-7 8-12 13-30 30-8 7-12 11-13 11-28 22-17 12-16 11-22 14-26 15-23 12-16 8-25 11-34 13-27 9-37 10-27 6-38 6-28 3-32 2h-36l-33-2-43-5-33-6-26-6-36-10-9-3-4 1-7 8-130 130-10 6-9 2-9-1-9-4-7-6-5-9-2-11 2-9 6-10 722-722 9-5z" fill="#010101"/>
<path transform="translate(757,338)" d="m0 0h49l31 2 35 4 39 7 4 1-2 4-8 7-47 47-7-1-22-6-25-4-15-1h-16l-27 3-15 3-21 6-21 9-15 8-15 10-12 9-7 6h-2v2l-8 7-2 3h-2l-2 4-8 9-11 15-12 20-8 17-7 19-5 19-3 19-1 9v32l3 24 7 28 2 7-7 8-33 33-3 4-3-1-9-20-9-28-5-24-3-25-1-16v-11l3-34 6-30 11-33 13-28 11-18 10-15 6-8-35 16-29 15-24 14-33 22-19 14-13 10-11 9-15 13-15 14-8 7-19 19-7 8-8 8-1 3 9 11 38 38 8 7 12 11 25 20 16 12 17 12 17 11 21 13 12 7 5 3-43 43-6-2-21-13-24-16-17-12-13-10-14-11-14-12-11-9-17-16-39-39-7-8-9-10-11-14-4-9v-14l4-9 6-8 12-14 31-33 12-12 8-7 10-10 8-7 14-12 15-12 17-13 15-11 15-10 17-11 15-9 27-15 25-13 34-15 27-10 33-11 34-9 34-7 25-4 41-4z" fill="#010101"/>
<path transform="translate(952,483)" d="m0 0 4 1 9 15 10 17 10 24 7 24 4 24 1 13v23l-3 26-6 25-6 17-8 18-12 20-8 11-8 10-11 12-9 9-11 9-15 11-19 11-20 9-21 7-17 4-21 3h-39l-27-4-24-7-20-8-19-10-12-8-8-5 2-4 10-9 60-60 10 4 16 6 14 3 9 1h17l19-3 19-7 12-6 13-9 12-11 11-14 6-10 8-20 4-19v-27l-4-20-6-16-3-6 1-5 15-14 53-53z" fill="#fff"/>
<path transform="translate(997,440)" d="m0 0 6 2 30 14 16 8 24 13 24 15 12 8 20 14 28 22 14 12 20 18 41 41 2 3-1 5-7 7-7 8-34 34-11 9-11 10-11 9-14 11-19 14-15 10-22 14-26 15-38 19-18 8h-3l2-4 11-15 13-22 8-16 8-19 8-26 6-31 2-19v-37l-3-26-6-29-9-27-11-24-9-17-14-21-6-7z" fill="#fff"/>
<path transform="translate(763,499)" d="m0 0h5l-6 7-91 91h-2l3-15 6-17 8-15 9-12 15-15 13-9 16-8 15-5z" fill="#010101"/>
</svg>
